<svg id="Capa_1" data-name="Capa 1" xmlns="http://www.w3.org/2000/svg" viewBox="0 0 259.39 75.58"><defs><style>.cls-1{fill:#ff4545;}.cls-2{fill:#ff8f3b;}.cls-3{fill:#bdf447;}</style></defs><title>logo</title><rect class="cls-1" x="46.16" y="3.09" width="25.05" height="25.05" rx="1.09"/><path class="cls-2" d="M44.23,29.19V15.61H19.16a.87.87,0,0,0-.87.88v21.1H35.83a.87.87,0,0,1,.87.88V56H57.81a.87.87,0,0,0,.87-.88V30.07H45.1A.88.88,0,0,1,44.23,29.19Z"/><rect class="cls-3" x="1.8" y="39.52" width="32.97" height="32.97" rx="1.09"/><path d="M68.57,38.08H78.73V71.47H68.57Z"/><path d="M93.6,47.72a1.77,1.77,0,0,0,.64,1.5,6.51,6.51,0,0,0,2.88.67l5.87.51a16.3,16.3,0,0,1,4.92,1.09,8.91,8.91,0,0,1,3.16,2.1,7.29,7.29,0,0,1,1.66,3,13.46,13.46,0,0,1,.48,3.67v1.09q0,5.29-3.51,7.79t-11,2.49H92l-4.25,0c-1.44,0-2.83,0-4.15-.1l1.41-7.85q3.2.06,7,.09c2.56,0,4.85,0,6.9,0a9.53,9.53,0,0,0,3.61-.45,1.86,1.86,0,0,0,.92-1.85,2,2,0,0,0-.64-1.63,5.47,5.47,0,0,0-2.87-.67l-6.26-.45c-3.53-.25-6-1.28-7.53-3.06A9.94,9.94,0,0,1,84,49.06V47.85a10.76,10.76,0,0,1,.77-4.19,7.46,7.46,0,0,1,2.46-3.09,12,12,0,0,1,4.43-2A28.59,28.59,0,0,1,98.33,38h5.56l3.79,0c1.43,0,3.06.05,4.89.1l-1.47,7.85-5.08-.1-3.73,0h-4.6a10.86,10.86,0,0,0-3.19.32A1.49,1.49,0,0,0,93.6,47.72Z"/><path d="M134.15,72.5a34.78,34.78,0,0,1-7.12-.64,12.08,12.08,0,0,1-4.88-2.11,8.42,8.42,0,0,1-2.81-3.9,17.32,17.32,0,0,1-.9-6V38.08H128.6V59.41a11.67,11.67,0,0,0,.19,2.29,3,3,0,0,0,2.43,2.53,12,12,0,0,0,2.93.28,11.84,11.84,0,0,0,2.88-.28,3.39,3.39,0,0,0,1.66-.93,3.28,3.28,0,0,0,.76-1.6,11.6,11.6,0,0,0,.2-2.29V38.08H149.8V59.85a17.32,17.32,0,0,1-.9,6,8.42,8.42,0,0,1-2.81,3.9,12.08,12.08,0,0,1-4.88,2.11A34.37,34.37,0,0,1,134.15,72.5Z"/><path d="M166.08,46.06V58.13a16.41,16.41,0,0,0,.19,2.71A3.21,3.21,0,0,0,167,62.5a2.94,2.94,0,0,0,1.56.83,12.43,12.43,0,0,0,2.65.23h3.23c.62,0,1.19,0,1.72,0l1.12,0-1.53,8h-1.06c-.49,0-1,0-1.62,0l-1.76,0H170a33.09,33.09,0,0,1-7-.61,8.79,8.79,0,0,1-4.31-2.11,7.91,7.91,0,0,1-2.14-4,30.31,30.31,0,0,1-.57-6.45v-28l10.15-1.47v9.2H177.7l-1.53,8Z"/><path d="M181.85,38.08H192V71.47H181.85Z"/><path d="M214,38h4q2.26,0,5.9.13l-1.53,8-2-.09L218.63,46c-.59,0-1.22,0-1.88,0h-2.33a17.09,17.09,0,0,0-3.26.26,3.71,3.71,0,0,0-2,1,4.28,4.28,0,0,0-1,2.17,19.28,19.28,0,0,0-.29,3.7v3.39a19.21,19.21,0,0,0,.29,3.7,4.14,4.14,0,0,0,1.05,2.17,3.87,3.87,0,0,0,2,1,16.59,16.59,0,0,0,3.19.26h4.89c1.42,0,3,0,4.75-.13l-1.53,8c-1.7,0-3.29.08-4.76.1l-3.61,0a31.76,31.76,0,0,1-7.88-.83,11.74,11.74,0,0,1-5.11-2.62,9.82,9.82,0,0,1-2.78-4.66,25.68,25.68,0,0,1-.83-7V53.08a24.67,24.67,0,0,1,.86-7,10.26,10.26,0,0,1,2.85-4.69,11.85,11.85,0,0,1,5.1-2.65A30.52,30.52,0,0,1,214,38Z"/><path d="M238,47.72a1.77,1.77,0,0,0,.64,1.5,6.51,6.51,0,0,0,2.88.67l5.87.51a16.3,16.3,0,0,1,4.92,1.09,8.91,8.91,0,0,1,3.16,2.1,7.29,7.29,0,0,1,1.66,3,13.46,13.46,0,0,1,.48,3.67v1.09q0,5.29-3.51,7.79T243,71.6h-6.61l-4.25,0c-1.45,0-2.83,0-4.15-.1l1.41-7.85c2.12,0,4.47.07,7,.09s4.85,0,6.9,0A9.53,9.53,0,0,0,247,63.3a1.86,1.86,0,0,0,.92-1.85,2,2,0,0,0-.64-1.63,5.47,5.47,0,0,0-2.87-.67l-6.26-.45c-3.53-.25-6-1.28-7.53-3.06a9.94,9.94,0,0,1-2.24-6.58V47.85a10.76,10.76,0,0,1,.77-4.19,7.46,7.46,0,0,1,2.46-3.09,12,12,0,0,1,4.43-2,28.59,28.59,0,0,1,6.71-.67h5.55l3.8,0c1.43,0,3.06.05,4.89.1l-1.47,7.85-5.08-.1-3.73,0h-4.6a10.86,10.86,0,0,0-3.19.32A1.49,1.49,0,0,0,238,47.72Z"/></svg>