<svg id="Capa_1" data-name="Capa 1" xmlns="http://www.w3.org/2000/svg" viewBox="0 0 772.72 525.25"><defs><style>.cls-1{fill:#ebbc45;}.cls-2{fill:#272425;}.cls-3{fill:#6d6e70;}.cls-4{fill:#919395;}.cls-5{fill:#f0f1f1;}.cls-6{fill:#a5a6a9;}.cls-7{fill:#babcbe;}.cls-8{fill:#cfd1d2;}.cls-9{fill:#6298d6;}.cls-10{fill:#fff;}.cls-11{fill:#7f8286;}.cls-12{fill:#e5e5e6;}.cls-13{fill:#afb4b8;}.cls-14{fill:#f2f2f2;}</style></defs><title>nosotros</title><circle class="cls-1" cx="380.51" cy="269.63" r="208.5"/><path class="cls-2" d="M252.82,421.41c-2.45-2.25-4.89-4.6-7.22-7l4-4c2.27,2.31,4.63,4.59,7,6.77Zm264.46-5.82-4-4c1.43-1.43,2.86-2.91,4.26-4.4l4.13,3.87C520.23,412.59,518.75,414.12,517.28,415.59ZM238.75,407.1c-2.21-2.5-4.39-5.09-6.46-7.69l4.42-3.52c2,2.52,4.12,5,6.27,7.46Zm289.58-3.55L524,399.91c2.08-2.47,4.13-5,6.09-7.62l4.5,3.42C532.59,398.37,530.48,401,528.33,403.55ZM226.24,391.4c-1.93-2.72-3.82-5.51-5.62-8.33l4.77-3c1.74,2.73,3.58,5.45,5.45,8.08Zm314.21-3.85-4.68-3.18c1.82-2.67,3.59-5.43,5.26-8.2l4.84,2.92C544.14,382,542.32,384.79,540.45,387.55Zm-325-13.08c-1.64-2.89-3.23-5.87-4.72-8.86l5.06-2.53c1.45,2.9,3,5.8,4.58,8.6Zm335.38-4.11-5-2.67c1.52-2.85,3-5.78,4.36-8.71l5.12,2.4C553.92,364.4,552.4,367.42,550.83,370.36ZM206.49,356.51c-1.33-3.06-2.6-6.19-3.76-9.32l5.29-2c1.14,3,2.36,6.07,3.65,9Zm352.86-4.33-5.24-2.13c1.22-3,2.37-6.07,3.42-9.12l5.35,1.84C561.79,345.92,560.6,349.09,559.35,352.18ZM199.47,337.7c-1-3.19-1.93-6.44-2.76-9.66l5.48-1.41c.8,3.13,1.7,6.28,2.67,9.37Zm366.43-4.5-5.43-1.56c.89-3.11,1.71-6.28,2.44-9.44l5.51,1.27C567.67,326.72,566.82,330,565.9,333.2ZM194.47,318.25c-.65-3.26-1.23-6.59-1.72-9.89l5.6-.82c.47,3.2,1,6.43,1.67,9.6Zm375.94-4.62-5.56-1c.55-3.18,1-6.42,1.43-9.64l5.61.69C571.49,307,571,310.35,570.41,313.63ZM191.56,298.39c-.31-3.31-.54-6.68-.68-10l5.65-.23c.13,3.24.35,6.51.66,9.72Zm381.28-4.69-5.64-.39c.23-3.22.37-6.5.42-9.74l5.66.1C573.22,287,573.07,290.38,572.84,293.7ZM196.38,278.39l-5.66-.05c0-3.34.16-6.71.37-10l5.64.35C196.53,271.88,196.41,275.16,196.38,278.39Zm371.16-4.56c-.11-3.24-.31-6.51-.59-9.73l5.63-.49c.29,3.32.49,6.69.61,10ZM197.59,259l-5.62-.64c.38-3.31.85-6.66,1.4-9.94l5.58.94C198.41,252.49,198,255.74,197.59,259Zm368.27-4.53c-.45-3.21-1-6.44-1.6-9.61l5.55-1.07c.63,3.26,1.19,6.59,1.65,9.9Zm-365-14.67-5.52-1.23c.72-3.26,1.54-6.53,2.44-9.74l5.45,1.52C202.32,233.41,201.52,236.59,200.82,239.75Zm361.33-4.45c-.78-3.14-1.66-6.3-2.6-9.39l5.41-1.65c1,3.18,1.87,6.44,2.68,9.67ZM206.05,221l-5.36-1.81c1.07-3.16,2.24-6.34,3.47-9.44l5.25,2.09C208.22,214.84,207.09,217.92,206.05,221Zm350.4-4.31c-1.1-3-2.31-6.08-3.57-9l5.2-2.22c1.3,3.06,2.54,6.19,3.68,9.32ZM213.26,202.85l-5.14-2.36c1.39-3,2.89-6.06,4.44-9l5,2.63C216.06,197,214.61,199.91,213.26,202.85Zm335.58-4c-1.42-2.9-2.94-5.8-4.51-8.62l4.94-2.75c1.62,2.91,3.19,5.9,4.64,8.88ZM222.33,185.59l-4.86-2.89c1.7-2.87,3.51-5.73,5.36-8.5l4.7,3.14C225.73,180,224,182.8,222.33,185.59Zm317-3.79c-1.72-2.73-3.53-5.46-5.39-8.11l4.62-3.25c1.92,2.73,3.79,5.54,5.56,8.36ZM233.16,169.38,228.63,166c2-2.68,4.09-5.34,6.21-7.89l4.35,3.61C237.13,164.2,235.1,166.78,233.16,169.38Zm295-3.51c-2-2.53-4.08-5.06-6.2-7.5l4.26-3.72c2.19,2.52,4.34,5.12,6.39,7.74ZM245.61,154.39l-4.15-3.83c2.26-2.45,4.61-4.87,7-7.2l3.95,4C250.09,149.67,247.81,152,245.61,154.39Zm269.77-3.19c-2.25-2.32-4.59-4.62-7-6.82l3.86-4.14c2.44,2.27,4.85,4.63,7.17,7ZM259.56,140.79l-3.73-4.25c2.5-2.19,5.1-4.35,7.71-6.42l3.5,4.44C264.51,136.56,262,138.66,259.56,140.79Zm241.56-2.86c-2.48-2.08-5.05-4.12-7.64-6.06l3.4-4.52c2.66,2,5.31,4.1,7.87,6.24Zm-226.28-9.21-3.27-4.61c2.73-1.93,5.53-3.81,8.34-5.58l3,4.78C280.21,125,277.48,126.85,274.84,128.72Zm210.7-2.51c-2.69-1.81-5.46-3.57-8.23-5.23l2.91-4.85c2.85,1.71,5.7,3.52,8.48,5.39Zm-194.25-7.88-2.77-4.94c2.91-1.63,5.89-3.2,8.87-4.67l2.5,5.07C297,115.22,294.11,116.74,291.29,118.33Zm177.53-2.14c-2.87-1.52-5.81-3-8.74-4.34l2.38-5.13c3,1.4,6.05,2.91,9,4.47Zm-160.1-6.48-2.23-5.19c3.05-1.32,6.18-2.57,9.3-3.72l2,5.31C314.72,107.22,311.69,108.44,308.72,109.71ZM451.12,108c-3-1.21-6.08-2.35-9.15-3.4l1.82-5.35c3.17,1.08,6.34,2.25,9.44,3.5ZM327,103l-1.67-5.4c3.18-1,6.43-1.9,9.66-2.72l1.39,5.48C333.21,101.13,330.06,102,327,103Zm105.7-1.3c-3.11-.88-6.29-1.69-9.44-2.4l1.25-5.52c3.25.74,6.52,1.57,9.73,2.48ZM345.85,98.2l-1.09-5.54c3.26-.65,6.59-1.21,9.89-1.69l.8,5.6C352.25,97,349,97.58,345.85,98.2Zm67.83-.83c-3.19-.54-6.43-1-9.64-1.39l.66-5.62c3.31.39,6.65.88,9.93,1.44Zm-48.55-1.93-.51-5.63c3.32-.3,6.69-.51,10-.64l.21,5.65C371.62,94.94,368.35,95.15,365.13,95.44Zm29.21-.35c-3.23-.21-6.5-.34-9.74-.39l.08-5.65c3.33,0,6.71.18,10,.39Z"/><path class="cls-2" d="M248.65,487c-2.75-1.86-5.5-3.8-8.18-5.78l3.35-4.55c2.62,1.93,5.31,3.83,8,5.64Zm276.91-4.49L522.24,478c1.06-.76,2.1-1.53,3.14-2.31l3.39,4.53C527.71,481,526.64,481.76,525.56,482.54Zm-293-7.39c-2.58-2.08-5.16-4.24-7.67-6.43l3.72-4.26c2.45,2.14,5,4.25,7.49,6.28ZM536.66,474l-3.58-4.38c2.52-2.05,5-4.18,7.45-6.33l3.75,4.23C541.8,469.73,539.23,471.91,536.66,474Zm-319.2-12c-2.41-2.29-4.81-4.65-7.12-7l4-3.94c2.26,2.32,4.6,4.64,7,6.87Zm334.17-1.24-3.92-4.08c2.34-2.24,4.66-4.57,6.9-6.92l4.09,3.91C556.4,456.05,554,458.44,551.63,460.74ZM203.51,447.62c-2.21-2.48-4.4-5-6.51-7.59l4.36-3.6c2.06,2.51,4.2,5,6.37,7.42Zm362-1.35-4.24-3.73c2.14-2.44,4.27-5,6.31-7.47l4.39,3.56C569.84,441.21,567.67,443.78,565.47,446.27ZM190.8,432.17c-2-2.65-4-5.37-5.87-8.11l4.65-3.22c1.85,2.67,3.78,5.34,5.73,7.92Zm387.27-1.45-4.53-3.37c1.93-2.6,3.84-5.28,5.67-8l4.67,3.19C582,425.32,580.05,428.06,578.07,430.72Zm-398.67-15c-1.77-2.79-3.51-5.67-5.17-8.56l4.89-2.82c1.63,2.81,3.33,5.62,5.06,8.36Zm410-1.54-4.8-3c1.72-2.76,3.4-5.58,5-8.41l4.92,2.79C592.83,408.46,591.11,411.36,589.35,414.18ZM169.41,398.39c-1.54-2.93-3-5.95-4.45-9l5.11-2.41c1.38,2.94,2.85,5.88,4.35,8.75Zm429.82-1.63-5-2.58c1.48-2.89,2.92-5.84,4.28-8.8l5.13,2.38C602.22,390.78,600.74,393.81,599.23,396.76ZM160.88,380.3c-1.29-3.06-2.53-6.19-3.69-9.29l5.3-2c1.13,3,2.34,6.09,3.6,9.08Zm446.74-1.73-5.22-2.15c1.23-3,2.43-6.07,3.54-9.12l5.31,1.93C610.11,372.36,608.89,375.5,607.62,378.57Zm-453.73-17c-1-3.15-2-6.37-2.9-9.56l5.44-1.53c.88,3.12,1.83,6.26,2.84,9.34Zm460.59-1.81L609.09,358c1-3.09,1.91-6.24,2.77-9.39l5.45,1.49C616.44,353.36,615.48,356.59,614.48,359.75Zm-466-17.43c-.76-3.23-1.46-6.52-2.09-9.77l5.55-1.07c.61,3.17,1.3,6.38,2.05,9.54Zm471.26-1.91-5.51-1.25c.72-3.17,1.39-6.4,2-9.59l5.56,1C621.16,333.86,620.48,337.17,619.74,340.41Zm-475-17.73c-.5-3.29-.93-6.63-1.29-9.93l5.63-.6c.34,3.22.76,6.48,1.25,9.69Zm478.68-2-5.6-.79c.46-3.21.85-6.47,1.17-9.71l5.63.57C624.25,314.08,623.84,317.42,623.38,320.7ZM142.54,302.78c-.22-3.31-.37-6.67-.46-10l5.65-.15c.09,3.25.24,6.53.45,9.77Zm482.83-2-5.65-.33c.19-3.23.32-6.52.37-9.77l5.66.1C625.69,294.11,625.56,297.48,625.37,300.79ZM147.68,282.86l-5.65-.08c.05-3.32.17-6.69.35-10l5.65.31C147.84,276.33,147.73,279.62,147.68,282.86Zm472.39-1.95c-.08-3.24-.22-6.53-.43-9.77l5.65-.36c.21,3.32.35,6.68.43,10Zm-471.3-17.56-5.63-.55c.32-3.3.72-6.64,1.17-9.94l5.6.78C149.47,256.86,149.08,260.12,148.77,263.35Zm470.05-2c-.34-3.22-.75-6.49-1.23-9.69l5.6-.83c.48,3.29.9,6.63,1.25,9.93ZM151.46,244l-5.56-1c.59-3.27,1.26-6.57,2-9.81l5.51,1.24C152.69,237.57,152,240.8,151.46,244ZM616,242.07c-.61-3.19-1.29-6.41-2-9.56l5.5-1.29c.76,3.23,1.45,6.53,2.08,9.8ZM155.75,224.93l-5.46-1.47c.86-3.21,1.8-6.44,2.8-9.61l5.39,1.69C157.51,218.64,156.59,221.8,155.75,224.93ZM611.53,223c-.87-3.12-1.82-6.27-2.82-9.36l5.38-1.74c1,3.16,2,6.39,2.88,9.59ZM161.61,206.26l-5.32-1.92c1.13-3.13,2.34-6.28,3.61-9.37l5.23,2.14C163.9,200.13,162.72,203.2,161.61,206.26Zm443.9-1.81c-1.12-3-2.32-6.09-3.57-9.07l5.22-2.18c1.27,3.05,2.5,6.18,3.65,9.28ZM169,188.12l-5.14-2.35c1.38-3,2.85-6.07,4.36-9l5,2.57C171.81,182.2,170.38,185.17,169,188.12Zm429-1.66c-1.37-2.93-2.82-5.88-4.31-8.74l5-2.61c1.53,2.94,3,5.95,4.42,9ZM177.92,170.68,173,167.91c1.63-2.9,3.35-5.8,5.1-8.63l4.8,3C181.18,165,179.51,167.86,177.92,170.68ZM589,169.15c-1.61-2.81-3.3-5.62-5-8.36l4.79-3c1.77,2.81,3.5,5.7,5.15,8.57ZM188.22,154l-4.68-3.17c1.87-2.76,3.82-5.51,5.79-8.17l4.54,3.36C192,148.66,190,151.35,188.22,154Zm390.38-1.41c-1.84-2.67-3.76-5.34-5.7-7.92l4.52-3.4c2,2.65,4,5.38,5.84,8.12ZM199.85,138.32l-4.4-3.55c2.09-2.58,4.25-5.16,6.44-7.66l4.25,3.73C204,133.28,201.89,135.8,199.85,138.32Zm367-1.3c-2-2.52-4.19-5-6.34-7.44l4.23-3.75c2.2,2.47,4.39,5,6.49,7.61Zm-354.13-13.4-4.1-3.9c2.29-2.41,4.66-4.8,7.05-7.11l3.93,4.07C217.29,118.93,215,121.27,212.74,123.62Zm341.15-1.21c-2.25-2.34-4.58-4.66-6.93-6.89l3.91-4.09c2.39,2.29,4.78,4.66,7.09,7ZM226.78,110,223,105.8c2.49-2.21,5-4.4,7.6-6.5l3.59,4.38C231.71,105.72,229.21,107.86,226.78,110Zm313-1.1c-2.43-2.14-5-4.26-7.48-6.31l3.56-4.39c2.59,2.09,5.16,4.26,7.65,6.45ZM241.89,97.64l-3.4-4.52c2.64-2,5.37-4,8.1-5.85l3.22,4.65C247.14,93.77,244.47,95.69,241.89,97.64Zm282.65-1c-2.61-1.93-5.29-3.84-8-5.66l3.18-4.68c2.74,1.87,5.49,3.82,8.16,5.8ZM258,86.54l-3-4.78c2.8-1.77,5.68-3.5,8.56-5.16l2.81,4.91C263.51,83.12,260.69,84.81,258,86.54Zm250.41-.92c-2.75-1.71-5.59-3.39-8.41-5l2.78-4.92c2.89,1.64,5.79,3.36,8.62,5.11Zm-233.49-8.8-2.61-5c2.93-1.53,5.95-3,8.95-4.43l2.4,5.12C280.68,73.87,277.74,75.32,274.87,76.82ZM491.32,76c-2.89-1.48-5.85-2.91-8.8-4.27l2.36-5.14c3,1.39,6.05,2.86,9,4.38Zm-198.8-7.46-2.19-5.21c3.06-1.29,6.19-2.52,9.28-3.67l2,5.3C298.56,66.07,295.51,67.28,292.52,68.53Zm181-.72c-3-1.23-6.08-2.42-9.14-3.53L466.32,59c3.13,1.13,6.28,2.34,9.36,3.61ZM310.81,61.73l-1.74-5.38c3.17-1,6.39-2,9.58-2.89l1.52,5.45C317.06,59.77,313.91,60.73,310.81,61.73Zm144.3-.59c-3.09-1-6.25-1.91-9.38-2.75l1.48-5.46c3.2.87,6.43,1.81,9.6,2.81ZM329.63,56.47,328.34,51c3.23-.76,6.52-1.46,9.79-2.09l1.06,5.55C336,55.05,332.79,55.73,329.63,56.47ZM436.25,56c-3.17-.71-6.39-1.37-9.58-2l1-5.56c3.26.6,6.56,1.27,9.81,2ZM348.83,52.8,348,47.2c3.28-.48,6.62-.91,9.92-1.26l.6,5.62C355.29,51.9,352,52.32,348.83,52.8ZM417,52.52c-3.19-.45-6.46-.84-9.7-1.16l.55-5.63c3.32.33,6.66.73,9.94,1.19Zm-48.76-1.8-.37-5.64c3.33-.22,6.69-.37,10-.45l.14,5.65C374.79,50.36,371.51,50.51,368.26,50.72Zm29.31-.12c-3.23-.18-6.51-.3-9.76-.36l.09-5.65c3.33,0,6.69.18,10,.37Z"/><path class="cls-3" d="M498,176.05a17,17,0,0,0-17-17H283.17a17,17,0,0,0-17,17v48.06H498Z"/><path class="cls-2" d="M498,226.94H266.21a2.83,2.83,0,0,1-2.83-2.83V176.05a19.82,19.82,0,0,1,19.79-19.79h197.9a19.81,19.81,0,0,1,19.78,19.79v48.06A2.83,2.83,0,0,1,498,226.94Zm-229-5.66H495.2V176.05a14.15,14.15,0,0,0-14.13-14.13H283.17A14.15,14.15,0,0,0,269,176.05Z"/><polyline class="cls-4" points="498.03 515.29 498.03 224.11 266.21 224.11 266.21 515.29"/><path class="cls-2" d="M500.85,515.29H495.2V226.94H269V515.29h-5.66V224.11a2.83,2.83,0,0,1,2.83-2.83H498a2.83,2.83,0,0,1,2.82,2.83Z"/><rect class="cls-5" x="281.76" y="241.07" width="200.72" height="253.02" rx="4.24"/><rect class="cls-2" x="230.87" y="512.47" width="305.32" height="5.65"/><path class="cls-5" d="M328.41,190.89a4.94,4.94,0,0,0,4.94,5H397a4.95,4.95,0,1,0,0-9.89H333.35a4.94,4.94,0,0,0-4.94,4.94Z"/><path class="cls-5" d="M414.63,190.89a5,5,0,0,0,4.95,5h9.89a4.95,4.95,0,1,0,0-9.89h-9.89a5,5,0,0,0-4.95,4.94Z"/><path class="cls-6" d="M683.13,215.32a18,18,0,0,0,.1-36.06c-.11,0,0,0,0,0v36S683,215.32,683.13,215.32Z"/><rect class="cls-7" x="526.3" y="174.64" width="22.62" height="46.65"/><rect class="cls-8" x="664.82" y="143.54" width="15.55" height="108.84" rx="2.62"/><path class="cls-2" d="M677.75,255.21H667.44a5.46,5.46,0,0,1-5.45-5.45V146.16a5.46,5.46,0,0,1,5.45-5.45h10.31a5.46,5.46,0,0,1,5.45,5.45v103.6A5.46,5.46,0,0,1,677.75,255.21Zm-10.1-5.66h9.89V146.37h-9.89Z"/><rect class="cls-4" x="567.29" y="238.25" width="21.2" height="33.92"/><path class="cls-2" d="M588.49,275h-21.2a2.83,2.83,0,0,1-2.83-2.83V238.25a2.83,2.83,0,0,1,2.83-2.83h21.2a2.83,2.83,0,0,1,2.83,2.83v33.92A2.83,2.83,0,0,1,588.49,275Zm-18.37-5.66h15.54V241.07H570.12Z"/><path class="cls-2" d="M526.3,211.39h-9.9a2.83,2.83,0,0,1-2.82-2.83v-21.2a2.83,2.83,0,0,1,2.82-2.83h9.9a2.83,2.83,0,0,1,2.82,2.83v21.2A2.83,2.83,0,0,1,526.3,211.39Zm-7.07-5.65h4.24V190.19h-4.24Z"/><polygon class="cls-9" points="611.11 169.39 646.45 160.06 646.45 235.18 611.11 225.84 611.11 169.39"/><polygon class="cls-5" points="664.82 154.67 664.82 181.1 664.82 214.13 664.82 240.56 646.45 235.18 646.45 160.06 664.82 154.67"/><path class="cls-2" d="M664.82,243.39a2.71,2.71,0,0,1-.79-.12l-18.38-5.38a2.83,2.83,0,0,1-2-2.71V160.06a2.84,2.84,0,0,1,2-2.72L664,152a2.82,2.82,0,0,1,3.62,2.71v85.89a2.84,2.84,0,0,1-2.83,2.83Zm-15.55-10.33L662,236.79V158.45l-12.72,3.73Z"/><rect class="cls-8" x="548.91" y="159.09" width="62.19" height="80.57" rx="3.93"/><path class="cls-2" d="M607.17,242.49H552.85a6.77,6.77,0,0,1-6.76-6.76V163a6.77,6.77,0,0,1,6.76-6.76h54.32a6.78,6.78,0,0,1,6.77,6.76v72.71A6.78,6.78,0,0,1,607.17,242.49Zm-54.32-80.57a1.11,1.11,0,0,0-1.11,1.1v72.71a1.11,1.11,0,0,0,1.11,1.1h54.32a1.11,1.11,0,0,0,1.11-1.1V163a1.11,1.11,0,0,0-1.11-1.1Z"/><path class="cls-10" d="M566,211.27a14,14,0,1,0,14-14A14,14,0,0,0,566,211.27Z"/><rect class="cls-2" x="560.22" y="168.98" width="38.16" height="5.65"/><rect class="cls-2" x="560.22" y="180.29" width="38.16" height="5.65"/><polygon class="cls-9" points="474.28 354.5 488.85 342.51 548.82 293.37 402.46 293.37 460.25 342.51 474.28 354.5"/><polygon class="cls-5" points="401.91 293.51 401.91 388.38 459.7 342.58 401.91 293.51"/><path class="cls-2" d="M401.91,391.21a2.85,2.85,0,0,1-2.83-2.83V293.51a2.82,2.82,0,0,1,4.66-2.15l57.79,49.07a2.83,2.83,0,0,1-.08,4.37l-57.79,45.79A2.79,2.79,0,0,1,401.91,391.21Zm2.83-91.59v82.91l50.5-40Z"/><polygon class="cls-5" points="488.94 342.58 548.91 388.38 548.91 293.51 488.94 342.58"/><path class="cls-2" d="M548.91,391.21a2.85,2.85,0,0,1-1.71-.58l-60-45.8a2.87,2.87,0,0,1-1.11-2.2,2.83,2.83,0,0,1,1-2.23l60-49.08a2.83,2.83,0,0,1,4.62,2.19v94.87a2.84,2.84,0,0,1-2.83,2.83Zm-55.41-48.7,52.59,40.15V299.48Z"/><polygon class="cls-5" points="474.28 354.5 460.25 342.43 402.46 388.08 548.82 388.08 488.85 342.43 474.28 354.5"/><path class="cls-2" d="M548.82,390.91H402.46a2.83,2.83,0,0,1-1.75-5.05l57.79-45.65a2.81,2.81,0,0,1,3.59.08l12.22,10.51L487,340.26a2.84,2.84,0,0,1,3.52-.08l60,45.65a2.83,2.83,0,0,1-1.71,5.08ZM410.6,385.25H540.44L488.92,346l-12.84,10.64a2.82,2.82,0,0,1-3.64,0L460.17,346.1Z"/><rect class="cls-2" x="304.38" y="446.03" width="158.31" height="5.65"/><rect class="cls-10" x="223.81" y="282.07" width="148.42" height="115.91"/><path class="cls-2" d="M372.22,400.8H223.81A2.83,2.83,0,0,1,221,398V282.06a2.82,2.82,0,0,1,2.83-2.82H372.22a2.82,2.82,0,0,1,2.83,2.82V398A2.83,2.83,0,0,1,372.22,400.8Zm-145.59-5.65H369.4V284.89H226.63Z"/><rect class="cls-9" x="236.53" y="293.37" width="121.56" height="90.46"/><path class="cls-2" d="M333.86,358.47,286.16,331l-48.77,25.33-2.61-5,50.14-26a2.8,2.8,0,0,1,2.72.06l49.05,28.26Z"/><path class="cls-2" d="M355.9,346.3l-23.13-15L316.17,346l-3.75-4.23,18.21-16.17a2.83,2.83,0,0,1,3.41-.26L359,341.55Z"/><path class="cls-10" d="M319.2,312a11.36,11.36,0,1,1-11.35-11.36A11.36,11.36,0,0,1,319.2,312Z"/><path class="cls-8" d="M410.85,239a28.24,28.24,0,1,0-56.48,0c0,.17,0,.63,0,.63h56.44S410.85,239.16,410.85,239Z"/><rect class="cls-8" x="298.72" y="241.07" width="171.03" height="24.03" rx="4.11"/><path class="cls-2" d="M465.65,267.93H302.83a7,7,0,0,1-6.94-6.93V245.18a7,7,0,0,1,6.94-6.93H465.65a6.94,6.94,0,0,1,6.93,6.93V261A6.94,6.94,0,0,1,465.65,267.93Zm-162.82-24a1.28,1.28,0,0,0-1.28,1.28V261a1.28,1.28,0,0,0,1.28,1.28H465.65a1.28,1.28,0,0,0,1.28-1.28V245.18a1.28,1.28,0,0,0-1.28-1.28Z"/><polygon class="cls-11" points="338.91 349.91 324.29 296.2 441.96 296.2 427.35 349.91 338.91 349.91"/><polygon class="cls-5" points="315.86 265.1 357.25 265.1 409 265.1 450.39 265.1 441.96 296.2 324.29 296.2 315.86 265.1"/><path class="cls-2" d="M442,299H324.29a2.83,2.83,0,0,1-2.73-2.09l-8.43-31.1a2.82,2.82,0,0,1,2.73-3.56H450.39a2.82,2.82,0,0,1,2.73,3.56l-8.43,31.1A2.83,2.83,0,0,1,442,299Zm-115.51-5.66H439.8l6.9-25.44H319.55Z"/><path class="cls-8" d="M447.14,442.37c0,3.4-3.42,6.49-6.82,6.49h-113c-3.41,0-6-3.09-6-6.49V356.1a6.06,6.06,0,0,1,6-6.19h113c3.4,0,6.82,2.79,6.82,6.19Z"/><path class="cls-2" d="M440.32,451.69h-113a9.1,9.1,0,0,1-8.84-9.32V356.1a8.82,8.82,0,0,1,8.84-9h113c5.14,0,9.65,4.21,9.65,9v86.27C450,447.24,445.37,451.69,440.32,451.69Zm-113-98.95a3.24,3.24,0,0,0-3.18,3.36v86.27a3.53,3.53,0,0,0,3.18,3.66h113c1.9,0,4-1.92,4-3.66V356.1c0-1.66-2-3.36-4-3.36Z"/><circle class="cls-10" cx="404.52" cy="399.73" r="21.91" transform="translate(-164.17 403.12) rotate(-45)"/><rect class="cls-2" x="338.3" y="371.12" width="5.65" height="59.37"/><rect class="cls-2" x="356.68" y="371.12" width="5.65" height="59.37"/><rect class="cls-2" x="393.43" y="396.56" width="21.2" height="5.65"/><polygon class="cls-8" points="233.7 161.92 127.69 161.92 127.69 234.01 181.4 234.01 181.4 259.45 208.68 234.01 233.7 234.01 233.7 161.92"/><rect class="cls-2" x="140.41" y="173.23" width="21.2" height="5.65"/><rect class="cls-2" x="140.41" y="190.19" width="80.57" height="5.65"/><rect class="cls-2" x="140.41" y="204.32" width="80.57" height="5.65"/><rect class="cls-2" x="140.41" y="218.46" width="16.96" height="5.65"/><rect class="cls-2" x="168.68" y="218.46" width="22.62" height="5.65"/><rect class="cls-2" x="199.78" y="218.46" width="21.2" height="5.65"/><rect class="cls-2" x="170.09" y="173.23" width="50.89" height="5.65"/><polygon class="cls-9" points="103.66 194.43 170.09 194.43 170.09 238.25 137.58 238.25 137.58 254.63 119.15 238.25 103.66 238.25 103.66 194.43"/><rect class="cls-2" x="134.75" y="202.91" width="24.03" height="5.65"/><rect class="cls-2" x="113.55" y="219.87" width="45.23" height="5.65"/><polygon class="cls-5" points="162.31 365.46 74.49 365.46 63.51 304.68 173.28 304.68 162.31 365.46"/><rect class="cls-4" x="57.01" y="291.96" width="125.8" height="14.14" rx="1.92"/><path class="cls-2" d="M180.89,308.92h-122a4.76,4.76,0,0,1-4.75-4.75V293.88a4.76,4.76,0,0,1,4.75-4.75h122a4.75,4.75,0,0,1,4.75,4.75v10.29A4.75,4.75,0,0,1,180.89,308.92Zm-121-5.65H180v-8.48H59.84Z"/><rect class="cls-2" x="114.97" y="318.82" width="5.65" height="32.51"/><rect class="cls-2" x="86.7" y="318.82" width="5.65" height="32.51"/><rect class="cls-2" x="143.24" y="318.82" width="5.65" height="32.51"/><path class="cls-9" d="M682.37,358.67a43.23,43.23,0,0,0,.31-61.06L652,328.29Z"/><path class="cls-5" d="M682.68,297.61l-.07-.08a42.87,42.87,0,0,0-30.12-12.6l0,42.9Z"/><path class="cls-12" d="M670.41,365.31l-30.23-30.23.24-43.18a42.47,42.47,0,0,0-30.56,12.46,43,43,0,0,0,60.61,60.9C670.51,365.21,670.41,365.31,670.41,365.31Z"/><path class="cls-2" d="M680.43,360.62l-30.28-30.18a2.82,2.82,0,0,1,0-4l30.54-30.83,4,4-28.56,28.83,28.29,28.18Z"/><rect class="cls-2" x="649.27" y="276.41" width="5.65" height="52.3"/><path class="cls-10" d="M601.76,460.45h.07c4.56-3.22,7.86-8.54,7.86-12.68V428.45s.56-16.11-15.54-16.11-15.55,16.11-15.55,16.11v19.32c0,4.14,3.4,9.46,8,12.68h.13a8.76,8.76,0,0,1-5.34,6.77c-4.09,1.82-12.72,5.84-18,11.15a45.88,45.88,0,0,0,61.08-.73C619,472.69,611,469,607.11,467.22A8.8,8.8,0,0,1,601.76,460.45Z"/><path class="cls-2" d="M593.44,492.48a48.7,48.7,0,0,1-32-12,2.87,2.87,0,0,1-1-2,2.82,2.82,0,0,1,.83-2.1c4.06-4.05,10.24-7.89,18.89-11.73a6.08,6.08,0,0,0,3.2-3c-4.57-3.83-7.64-9.3-7.64-13.83V428.44c0-.24-.23-8.32,5.16-13.89,3.22-3.34,7.67-5,13.22-5s10,1.7,13.22,5c5.38,5.57,5.16,13.65,5.15,14v19.23c0,4.55-3,10-7.5,13.79a6.12,6.12,0,0,0,3.24,3.08c8.08,3.59,14,7.16,18,10.92a2.82,2.82,0,0,1,0,4.16A48.58,48.58,0,0,1,593.44,492.48Zm-25.75-14.21a43,43,0,0,0,52.31-.62,74.73,74.73,0,0,0-14-7.85,11.63,11.63,0,0,1-7-8.82,3.41,3.41,0,0,1-.05-.55,2.82,2.82,0,0,1,1.67-2.57c3.6-2.71,6.27-7,6.27-10.09V428.44c0-.14.12-6.17-3.6-10-2.12-2.18-5.19-3.28-9.12-3.28s-7,1.1-9.13,3.28c-3.72,3.82-3.6,9.85-3.6,9.91v19.41c0,3,2.76,7.36,6.36,10.08h0a2.84,2.84,0,0,1,1.74,2.6,3.88,3.88,0,0,1,0,.48,11.65,11.65,0,0,1-7,8.88A68.94,68.94,0,0,0,567.69,478.27Zm21.51-19h0Zm0,0h0Zm0,0h0ZM588,457.93a2.77,2.77,0,0,1,1.24,1.27A2.82,2.82,0,0,0,588,457.93Z"/><path class="cls-13" d="M593.44,397.84a45.89,45.89,0,0,0-30.11,80.53c5.31-5.31,13.95-9.33,18-11.15a8.53,8.53,0,0,0,5.18-6.77c-4.56-3.22-8-8.54-8-12.68V428.45s-.56-16.11,15.55-16.11,15.54,16.11,15.54,16.11v19.32c0,4.14-3.3,9.46-7.86,12.68a8.75,8.75,0,0,0,5.32,6.77c3.91,1.74,11.91,5.47,17.27,10.42a45.92,45.92,0,0,0-31-79.8Z"/><path class="cls-2" d="M563.33,481.2a2.84,2.84,0,0,1-1.86-.69,48.73,48.73,0,1,1,64.85-.79,2.82,2.82,0,0,1-3.82,0c-3.57-3.3-9.12-6.63-16.5-9.91a11.59,11.59,0,0,1-7-8.88,2.82,2.82,0,0,1,1.15-2.77c3.8-2.69,6.67-7.15,6.67-10.38V428.44c0-.14.12-6.17-3.6-10-2.12-2.18-5.19-3.28-9.12-3.28s-7,1.1-9.13,3.28c-3.72,3.82-3.6,9.85-3.6,9.91v19.41c0,3.14,3,7.69,6.77,10.38a2.8,2.8,0,0,1,1.15,2.78,11.37,11.37,0,0,1-6.82,8.88c-7.9,3.51-13.69,7.06-17.2,10.56A2.81,2.81,0,0,1,563.33,481.2Zm30.11-80.53a43.07,43.07,0,0,0-30.11,73.87c4-3.39,9.56-6.64,16.9-9.9a5.53,5.53,0,0,0,3.12-3.1c-4.54-3.82-7.58-9.26-7.58-13.77V428.44c0-.24-.23-8.32,5.16-13.89,3.22-3.34,7.67-5,13.22-5s10,1.7,13.22,5c5.38,5.57,5.16,13.65,5.15,14v19.23c0,4.54-3,10-7.46,13.75a6,6,0,0,0,3.24,3.12,74,74,0,0,1,16,9.17,43.07,43.07,0,0,0-30.86-73.14Z"/><rect class="cls-9" x="114.97" y="412.11" width="107.43" height="62.19"/><path class="cls-2" d="M208.1,465.82H130.34V463c0-1.22-1.4-2.13-2.65-2.13h-2.83V425.52h2.83c1,0,2.65-2,2.65-3.52v-2.82H208.1V422c0,1.48,1.9,3.52,3,3.52h2.83v35.34h-2.83c-1.45,0-3,1.1-3,2.13Zm-72.67-5.65H203a8.58,8.58,0,0,1,5.22-4.5V430.55a10.42,10.42,0,0,1-5.26-5.72H135.48a10.09,10.09,0,0,1-5,5.7v25.14A8.1,8.1,0,0,1,135.43,460.17Z"/><path class="cls-2" d="M169.22,456.62a13.43,13.43,0,1,1,13.43-13.43A13.45,13.45,0,0,1,169.22,456.62Zm0-21.21a7.78,7.78,0,1,0,7.78,7.78A7.78,7.78,0,0,0,169.22,435.41Z"/><rect class="cls-2" x="192.71" y="440.38" width="5.65" height="5.65"/><rect class="cls-2" x="140.41" y="440.38" width="5.65" height="5.65"/><rect class="cls-2" x="315.68" y="471.48" width="14.14" height="5.65"/><rect class="cls-2" x="345.37" y="471.48" width="14.14" height="5.65"/><rect class="cls-2" x="375.05" y="471.48" width="14.13" height="5.65"/><rect class="cls-2" x="404.74" y="471.48" width="14.14" height="5.65"/><rect class="cls-2" x="434.42" y="471.48" width="14.14" height="5.65"/><path class="cls-9" d="M393.43,110.24V99.36c1.41-.62,3.91-1.44,5.78-2.44l7.63,7.69a1.82,1.82,0,0,0,2.62,0l11-11a1.87,1.87,0,0,0,0-2.64l-7.7-7.82a20.09,20.09,0,0,0,2.44-6h10.88c1,0,1.27-.59,1.27-1.62V59.9c0-1-.24-1.17-1.27-1.17H415.2a21.7,21.7,0,0,0-2.44-6.24l7.69-7.87a2,2,0,0,0,0-2.73l-11-11.07a1.84,1.84,0,0,0-2.63,0l-7.58,7.68c-1.87-1-4.37-1.83-5.78-2.46V25.14a2,2,0,0,0-2.1-1.75H375.74a2,2,0,0,0-2.1,1.75V36c-1.42.63-3.91,1.46-5.77,2.45l-7.65-7.69a1.81,1.81,0,0,0-2.61,0l-11,11a1.87,1.87,0,0,0,0,2.64l7.71,8.05a21.42,21.42,0,0,0-2.44,6.24H341c-1,0-1.28.14-1.28,1.17V75.49c0,1,.24,1.62,1.28,1.62h10.88a19.82,19.82,0,0,0,2.45,6l-7.71,7.76a1.9,1.9,0,0,0,0,2.67l11,11a1.87,1.87,0,0,0,2.64,0l7.59-7.7c1.86,1,4.35,1.83,5.77,2.45v10.88a2.39,2.39,0,0,0,2.1,2.2h15.59A2.39,2.39,0,0,0,393.43,110.24Z"/><path class="cls-5" d="M383.13,82.2a14,14,0,1,1,14-14A14,14,0,0,1,383.13,82.2Z"/><path class="cls-2" d="M383.13,85A16.82,16.82,0,1,1,400,68.21,16.84,16.84,0,0,1,383.13,85Zm0-28A11.17,11.17,0,1,0,394.3,68.21,11.18,11.18,0,0,0,383.13,57Z"/><rect class="cls-2" x="660.68" y="401.82" width="5.65" height="21.12" transform="translate(-97.27 589.94) rotate(-45)"/><rect class="cls-2" x="652.94" y="409.56" width="21.12" height="5.65" transform="translate(-97.26 589.95) rotate(-45)"/><rect class="cls-10" x="86.79" y="389.1" width="5.65" height="21.12" transform="translate(-256.35 180.42) rotate(-45)"/><rect class="cls-10" x="79.06" y="396.83" width="21.12" height="5.65" transform="translate(-256.35 180.43) rotate(-45)"/><rect class="cls-10" x="652.2" y="82.37" width="5.65" height="21.12" transform="translate(126.15 490.4) rotate(-45)"/><rect class="cls-10" x="644.46" y="90.1" width="21.12" height="5.65" transform="translate(126.14 490.39) rotate(-45)"/><rect class="cls-2" x="93.86" y="119.12" width="5.65" height="21.12" transform="translate(-63.38 106.35) rotate(-45)"/><rect class="cls-2" x="86.13" y="126.85" width="21.12" height="5.65" transform="translate(-63.38 106.35) rotate(-45)"/><rect class="cls-10" x="304.47" y="6.04" width="5.65" height="21.12" transform="translate(78.27 222.16) rotate(-45)"/><rect class="cls-10" x="296.74" y="13.77" width="21.12" height="5.65" transform="translate(78.27 222.16) rotate(-45)"/><rect class="cls-2" x="465.61" y="6.04" width="5.65" height="21.12" transform="translate(125.47 336.11) rotate(-45)"/><rect class="cls-2" x="457.88" y="13.77" width="21.12" height="5.65" transform="translate(125.47 336.1) rotate(-45)"/><rect class="cls-2" x="739.83" y="274.6" width="5.65" height="21.12" transform="translate(15.87 608.65) rotate(-45)"/><rect class="cls-2" x="732.1" y="282.34" width="21.12" height="5.65" transform="translate(15.88 608.66) rotate(-45)"/><rect class="cls-2" x="20.36" y="242.09" width="5.65" height="21.12" transform="translate(-171.87 90.4) rotate(-45)"/><rect class="cls-2" x="12.62" y="249.83" width="21.12" height="5.65" transform="translate(-171.86 90.39) rotate(-45)"/><rect class="cls-2" x="561.64" y="20.57" width="22.62" height="5.65"/><rect class="cls-2" x="589.91" y="20.57" width="8.48" height="5.65"/><rect class="cls-2" x="139" y="36.11" width="22.62" height="5.65"/><rect class="cls-2" x="167.27" y="36.11" width="8.48" height="5.65"/><rect class="cls-10" x="731.26" y="202.91" width="22.62" height="5.65"/><rect class="cls-10" x="759.53" y="202.91" width="8.48" height="5.65"/><rect class="cls-10" x="4.71" y="187.36" width="22.62" height="5.65"/><rect class="cls-10" x="32.98" y="187.36" width="8.48" height="5.65"/><rect class="cls-2" x="4.71" y="362.64" width="22.62" height="5.65"/><rect class="cls-2" x="32.98" y="362.64" width="8.48" height="5.65"/><rect class="cls-10" x="710.05" y="381.01" width="22.62" height="5.65"/><rect class="cls-10" x="738.32" y="381.01" width="8.48" height="5.65"/><path class="cls-14" d="M288.17,82.63a32.49,32.49,0,0,0-18.53,5.78,24,24,0,0,0-14.06-7.83,32.67,32.67,0,1,0-64.05,3,32.81,32.81,0,0,0-7.53-.9,32.44,32.44,0,0,0-32.67,32.64H320.84A32.44,32.44,0,0,0,288.17,82.63Z"/><path class="cls-14" d="M195.52,89.91a54.72,54.72,0,0,1-5.76-4.18l3.54-4.41a53.88,53.88,0,0,0,4.83,3.58Z"/><path class="cls-14" d="M270.58,94l-5.65-.18c.1-3,2.05-6.41,2.27-6.79l4.88,2.85-2.44-1.42,2.44,1.42A11.61,11.61,0,0,0,270.58,94Z"/><rect class="cls-14" x="187.05" y="112.44" width="144.18" height="5.65"/><rect class="cls-14" x="336.89" y="112.44" width="5.65" height="5.65"/><path class="cls-14" d="M465.38,99.35a36.87,36.87,0,0,1,21.06,6.56,27.27,27.27,0,0,1,16-8.9,37.52,37.52,0,0,1-.4-5.43,37.13,37.13,0,1,1,73.2,8.77,37.05,37.05,0,0,1,8.55-1,36.68,36.68,0,0,1,37.13,37.12H428.25A36.68,36.68,0,0,1,465.38,99.35Z"/><path class="cls-14" d="M570.51,107.27l-2.61-5a63.88,63.88,0,0,0,5.56-4.12l3.53,4.41A64.89,64.89,0,0,1,570.51,107.27Z"/><path class="cls-14" d="M485.76,112.2a13.69,13.69,0,0,0-1.76-4.87l4.88-2.85c.25.42,2.42,4.22,2.53,7.54Z"/><rect class="cls-14" x="417.46" y="133.65" width="101.77" height="5.65"/><rect class="cls-14" x="404.74" y="133.65" width="5.65" height="5.65"/><rect class="cls-2" x="548.91" y="133.65" width="49.47" height="5.65"/></svg>